<svg xmlns="http://www.w3.org/2000/svg" width="272.211" height="279.202" viewBox="0 0 272.211 279.202">
  <path id="_3d-cube" data-name="3d-cube" d="M275.639,64.92c-.01-.077-.023-.153-.035-.229a7.433,7.433,0,0,0-.18-.833c-.011-.042-.02-.083-.032-.125a7.443,7.443,0,0,0-.341-.916c-.022-.05-.048-.1-.071-.148a7.5,7.5,0,0,0-.4-.743c-.029-.048-.057-.1-.087-.144a7.4,7.4,0,0,0-.567-.761c-.04-.047-.083-.091-.125-.138a7.7,7.7,0,0,0-.57-.573c-.051-.046-.1-.094-.152-.138a7.571,7.571,0,0,0-.767-.577c-.042-.027-.085-.051-.127-.077a7.513,7.513,0,0,0-.794-.433c-.028-.013-.053-.031-.081-.044L142.7.671a7.492,7.492,0,0,0-6.2,0L47.638,41a7.5,7.5,0,1,0,6.2,13.658L139.6,15.736,249.817,65.761,139.6,114.2,14.011,59.006,13.984,59c-.184-.08-.374-.149-.565-.215-.048-.017-.1-.037-.144-.053-.157-.05-.319-.089-.48-.129-.085-.021-.17-.047-.256-.065-.1-.022-.209-.034-.314-.052-.146-.024-.292-.051-.438-.067-.068-.007-.139-.008-.208-.013-.183-.014-.365-.026-.547-.027l-.038,0c-.071,0-.14.009-.21.011-.162,0-.324.009-.484.024-.125.011-.247.031-.37.049s-.227.03-.338.052c-.153.029-.3.067-.452.1-.081.021-.162.039-.242.063-.162.047-.32.1-.477.16-.068.024-.136.047-.2.074-.155.062-.306.131-.456.2-.069.034-.14.065-.208.1-.136.07-.269.147-.4.226-.081.048-.162.1-.24.146-.113.073-.222.152-.331.231-.091.066-.182.132-.27.2s-.181.152-.269.23-.191.167-.282.256-.154.159-.229.239c-.09.1-.18.191-.266.292s-.147.186-.22.28-.148.19-.218.291c-.083.12-.158.245-.234.37-.049.081-.1.16-.148.243-.09.162-.17.329-.249.5-.022.048-.049.091-.07.14,0,.009-.006.019-.01.027-.08.184-.149.373-.214.563-.017.049-.038.1-.054.146-.049.155-.088.315-.127.474-.022.088-.049.175-.068.264s-.032.2-.049.3c-.026.152-.054.3-.07.457-.006.06-.006.12-.011.18-.016.192-.028.385-.029.577,0,.011,0,.021,0,.033V212.3a7.5,7.5,0,0,0,4.355,6.809l128.606,59.4a.17.17,0,0,1,.026.011c.055.024.111.042.166.065a7.488,7.488,0,0,0,.756.279c.089.027.179.05.27.074q.364.1.73.157c.075.012.15.027.226.037a7.487,7.487,0,0,0,.966.07c.032,0,.063-.006.1-.007a7.3,7.3,0,0,0,.848-.06c.1-.013.206-.033.308-.05.219-.037.437-.083.653-.14.1-.026.2-.052.3-.083a7.379,7.379,0,0,0,.706-.258c.065-.027.131-.049.2-.078.015-.007.031-.011.045-.018l128.606-59.4a7.5,7.5,0,0,0,4.355-6.809V65.872A7.481,7.481,0,0,0,275.639,64.92ZM147.1,259.972V159.266a7.5,7.5,0,0,0-15,0V259.973L18.494,207.5V77.36l118.089,51.9a7.5,7.5,0,0,0,6.036,0l118.087-51.9V207.5Z" transform="translate(-3.495 0)" fill="#fff"/>
</svg>
