<svg xmlns="http://www.w3.org/2000/svg" width="112.53" height="112.536" viewBox="0 0 112.53 112.536">
  <path id="Path_5" data-name="Path 5" d="M236.715,157.191a19.8,19.8,0,0,1-32.848-14.977c0-.37.09-.71.113-1.074a56.253,56.253,0,1,0,32.735,16.051ZM196.9,241.247a44.335,44.335,0,0,1-3.2-88.554,31.919,31.919,0,0,0,8.622,12.936,31.664,31.664,0,0,1,16.027,7.918,30.945,30.945,0,0,0,15.46-1.182,43.928,43.928,0,0,1,7.423,24.542A44.385,44.385,0,0,1,196.9,241.247Z" transform="translate(-140.641 -140.645)" fill="#fff"/>
</svg>
