<svg xmlns="http://www.w3.org/2000/svg" width="274.476" height="288.403" viewBox="0 0 274.476 288.403">
  <path id="Path_3" data-name="Path 3" d="M196.9,59.669c-75.672,0-137.238,61.566-137.238,137.238a137.456,137.456,0,0,0,94.527,130.281,31.909,31.909,0,0,0,29.781,20.884,31.477,31.477,0,0,0,26.815-14.792A136.957,136.957,0,0,0,334.142,196.907C334.142,121.235,272.582,59.669,196.9,59.669Zm6.05,262.238a19.776,19.776,0,0,1-38.713-4.159C110.963,303.32,71.6,254.69,71.6,196.913a125.3,125.3,0,1,1,250.608,0C322.208,263.962,269.228,318.726,202.954,321.907Z" transform="translate(-59.666 -59.669)" fill="#fff"/>
</svg>
