<svg xmlns="http://www.w3.org/2000/svg" width="378.346" height="385" viewBox="0 0 378.346 385">
  <path id="Path_1" data-name="Path 1" d="M378.887,222.706,202.213,4.631a12.5,12.5,0,0,0-19.426,0L6.114,222.706A12.5,12.5,0,0,0,8,240.32L184.673,382.245a12.5,12.5,0,0,0,15.656,0L377,240.32a12.5,12.5,0,0,0,1.885-17.614ZM180,131.016l-9.671,5.275a10,10,0,1,0,9.576,17.558l.1-.052V346.423L37.185,231.7l3.347-1.826a10,10,0,0,0,3.992-13.567c-.14-.256-.294-.5-.451-.737l10.368-12.8a10,10,0,0,0,14.352,11.687l27.295-14.889a10,10,0,1,0-9.576-17.558L59.216,196.9c-.013.007-.024.017-.038.023L180,47.787Zm25,215.408V153.8l.093.051a10,10,0,0,0,9.578-17.558L205,131.016V47.787L325.822,196.924c-.014-.008-.025-.018-.04-.025l-27.3-14.889a10,10,0,1,0-9.577,17.558L316.2,214.457a10,10,0,0,0,14.351-11.692l10.371,12.8c-.158.238-.313.482-.452.738a10,10,0,0,0,3.99,13.568l3.351,1.827Z" transform="translate(-3.327)" fill="#fff"/>
</svg>
