<svg xmlns="http://www.w3.org/2000/svg" width="274.476" height="294.696" viewBox="0 0 274.476 294.696">
  <g id="Group_1" data-name="Group 1" transform="translate(-542.663 -140.669)">
    <path id="Path_3" data-name="Path 3" d="M196.9,59.669c-75.672,0-137.238,61.566-137.238,137.238a137.456,137.456,0,0,0,94.527,130.281,31.909,31.909,0,0,0,29.781,20.884,31.477,31.477,0,0,0,26.815-14.792A136.957,136.957,0,0,0,334.142,196.907C334.142,121.235,272.582,59.669,196.9,59.669Zm6.05,262.238a19.776,19.776,0,0,1-38.713-4.159C110.963,303.32,71.6,254.69,71.6,196.913a125.3,125.3,0,1,1,250.608,0C322.208,263.962,269.228,318.726,202.954,321.907Z" transform="translate(482.997 81)" fill="#fff"/>
    <path id="Path_4" data-name="Path 4" d="M219.338,83.536c-74.878,0-135.805,61.15-135.805,136.318a136.374,136.374,0,0,0,99.909,131.332c4.153-7,11.7,11.948,20.407,11.948,10.514,0,19.347-16.805,22.507-7.314,71.619-3.7,128.786-63.172,128.786-135.959C355.142,144.693,294.217,83.536,219.338,83.536Zm15.146,257.175c-7.033-9.649-13.971-12.947-30.635-15.627a38.011,38.011,0,0,0-25.1,9.593A122.229,122.229,0,0,1,97.829,219.862c0-67.254,54.507-121.969,121.51-121.969s121.51,54.713,121.51,121.969A121.636,121.636,0,0,1,234.484,340.711Z" transform="translate(460.997 57.414)" fill="#fff"/>
    <path id="Path_6" data-name="Path 6" d="M255.582,142.495c0-.1-4-3.739-4-3.828-2.117-2.021-2.738-1.914-3.154-3.1-.8-2.31-.133-4.643-1.026-6.778-1.747-4.193-2.612-7.015-6.221-9.658a20.5,20.5,0,0,0-4.313-2.823,31.928,31.928,0,0,0-12.554-2.642c-4.292,0-3.413,2.057-6.11,3.118-1.306.507-3.859-.768-6.068.97-2.524-.251-12.839-.97-15.231-.97a80.386,80.386,0,1,0,58.678,25.711ZM196.9,267.037c-37.6,0-68.195-32.521-68.195-70.124S159.3,125.82,196.9,125.82c5.522-.158,8.069,1.679,9.46,0,4.381-.32,10.269-3.958,12.948-3.505,3.64-4.5-1.793,0,4.443,0a19.7,19.7,0,0,1,19.3,24.518c13.521,12.471,24.028,30.276,24.028,50.08C267.085,234.522,234.513,267.037,196.9,267.037Z" transform="translate(478.997 81)" fill="#fff"/>
    <path id="Path_7" data-name="Path 7" d="M165.082,193.34A28.251,28.251,0,1,0,212.373,172.6a28.152,28.152,0,0,1-14.228-7.029,27.863,27.863,0,0,0-33.063,27.766Zm45.909,0a17.658,17.658,0,1,1-17.66-17.66A17.655,17.655,0,0,1,210.991,193.34Z" transform="translate(898.203 256.596) rotate(103)" fill="#fff"/>
    <path id="Path_8" data-name="Path 8" d="M165.082,189.557A24.469,24.469,0,1,0,206.041,171.6a24.382,24.382,0,0,1-12.323-6.088,24.132,24.132,0,0,0-28.636,24.048Zm39.762,0a15.293,15.293,0,1,1-15.3-15.3A15.291,15.291,0,0,1,204.844,189.557Z" transform="translate(474.718 80.879) rotate(-14)" fill="#fff"/>
  </g>
</svg>
